<?xml version="1.0" encoding="UTF-8" standalone="no"?>
<!-- Created with Inkscape (http://www.inkscape.org/) -->

<svg
   xmlns:dc="http://purl.org/dc/elements/1.1/"
   xmlns:cc="http://creativecommons.org/ns#"
   xmlns:rdf="http://www.w3.org/1999/02/22-rdf-syntax-ns#"
   xmlns:svg="http://www.w3.org/2000/svg"
   xmlns="http://www.w3.org/2000/svg"
   xmlns:sodipodi="http://sodipodi.sourceforge.net/DTD/sodipodi-0.dtd"
   xmlns:inkscape="http://www.inkscape.org/namespaces/inkscape"
   width="765"
   height="990"
   id="svg2"
   version="1.1"
   inkscape:version="0.48.2 r9819"
   sodipodi:docname="acronymElect.svg">
  <defs
     id="defs4" />
  <sodipodi:namedview
     id="base"
     pagecolor="#ffffff"
     bordercolor="#666666"
     borderopacity="1.0"
     inkscape:pageopacity="0.0"
     inkscape:pageshadow="2"
     inkscape:zoom="0.49497475"
     inkscape:cx="565.60425"
     inkscape:cy="549.81188"
     inkscape:document-units="px"
     inkscape:current-layer="layer6"
     showgrid="false"
     borderlayer="true"
     inkscape:showpageshadow="false"
     inkscape:window-width="1072"
     inkscape:window-height="638"
     inkscape:window-x="1"
     inkscape:window-y="0"
     inkscape:window-maximized="0"
     showguides="true"
     inkscape:guide-bbox="true" />
  <metadata
     id="metadata7">
    <rdf:RDF>
      <cc:Work
         rdf:about="">
        <dc:format>image/svg+xml</dc:format>
        <dc:type
           rdf:resource="http://purl.org/dc/dcmitype/StillImage" />
        <dc:title />
      </cc:Work>
    </rdf:RDF>
  </metadata>
  <g
     inkscape:label="t"
     inkscape:groupmode="layer"
     id="layer1"
     transform="translate(0,-62.362183)"
     sodipodi:insensitive="true">
    <text
       xml:space="preserve"
       style="font-size:20px;font-style:normal;font-weight:normal;line-height:125%;letter-spacing:0px;word-spacing:0px;fill:#000000;fill-opacity:1;stroke:none;font-family:Sans"
       x="170.65254"
       y="829.07422"
       id="text3071"
       sodipodi:linespacing="125%"><tspan
         sodipodi:role="line"
         id="tspan3073"
         x="170.65254"
         y="829.07422">Triomphant Saints: We will persevere in faith</tspan><tspan
         sodipodi:role="line"
         id="tspan3075"
         x="170.65254"
         y="854.07422"> because of Gods saving grace. He will continue to</tspan><tspan
         sodipodi:role="line"
         x="170.65254"
         y="879.07422"
         id="tspan3079"> perfect us, and transform us more and more into</tspan><tspan
         sodipodi:role="line"
         x="170.65254"
         y="904.07422"
         id="tspan3083"> His image.</tspan></text>
  </g>
  <g
     inkscape:groupmode="layer"
     id="layer2"
     inkscape:label="c"
     sodipodi:insensitive="true">
    <text
       xml:space="preserve"
       style="font-size:20px;font-style:normal;font-weight:normal;line-height:125%;letter-spacing:0px;word-spacing:0px;fill:#000000;fill-opacity:1;stroke:none;font-family:Sans"
       x="178.92302"
       y="662.39606"
       id="text3065"
       sodipodi:linespacing="125%"><tspan
         sodipodi:role="line"
         id="tspan3067"
         x="178.92302"
         y="662.39606">Conquering Grace: Though men may resist God's</tspan><tspan
         sodipodi:role="line"
         id="tspan3069"
         x="178.92302"
         y="687.39606"> Grace for a time, saving grace will always conquer.</tspan></text>
  </g>
  <g
     inkscape:groupmode="layer"
     id="layer3"
     inkscape:label="e2"
     sodipodi:insensitive="true">
    <text
       xml:space="preserve"
       style="font-size:20px;font-style:normal;font-weight:normal;line-height:125%;letter-spacing:0px;word-spacing:0px;fill:#000000;fill-opacity:1;stroke:none;font-family:Sans"
       x="172.29755"
       y="529.04681"
       id="text3059"
       sodipodi:linespacing="125%"><tspan
         sodipodi:role="line"
         id="tspan3061"
         x="172.29755"
         y="529.04681">Effectual Atonement: All whom Christ willed to be</tspan><tspan
         sodipodi:role="line"
         x="172.29755"
         y="554.04681"
         id="tspan3035"> saved will be saved through His deth and</tspan><tspan
         sodipodi:role="line"
         x="172.29755"
         y="579.04681"
         id="tspan3041"> resurrection.</tspan></text>
  </g>
  <g
     inkscape:groupmode="layer"
     id="layer4"
     inkscape:label="l"
     sodipodi:insensitive="true">
    <flowRoot
       xml:space="preserve"
       id="flowRoot3055"
       style="font-size:20px;font-style:normal;font-weight:normal;line-height:125%;letter-spacing:0px;word-spacing:0px;fill:#000000;fill-opacity:1;stroke:none;font-family:Sans"><flowRegion
         id="flowRegion3057"><rect
           id="rect3059"
           width="539.42145"
           height="98.994949"
           x="149.50258"
           y="413.20291"
           style="font-size:20px" /></flowRegion><flowPara
         id="flowPara3061" /></flowRoot>    <text
       xml:space="preserve"
       style="font-size:20px;font-style:normal;font-weight:normal;line-height:125%;letter-spacing:0px;word-spacing:0px;fill:#000000;fill-opacity:1;stroke:none;font-family:Sans"
       x="167.45377"
       y="412.37463"
       id="text3053"
       sodipodi:linespacing="125%"><tspan
         sodipodi:role="line"
         id="tspan3055"
         x="167.45377"
         y="412.37463">Lord Centered Election: Election not based on</tspan><tspan
         sodipodi:role="line"
         id="tspan3057"
         x="167.45377"
         y="437.37463"> anything in us or what God saw in us.</tspan></text>
  </g>
  <g
     inkscape:groupmode="layer"
     id="layer5"
     inkscape:label="e"
     sodipodi:insensitive="true">
    <text
       xml:space="preserve"
       style="font-size:20px;font-style:normal;font-weight:normal;line-height:125%;letter-spacing:0px;word-spacing:0px;fill:#000000;fill-opacity:1;stroke:none;font-family:Sans"
       x="165.11678"
       y="274.84122"
       id="text3041"
       sodipodi:linespacing="125%"><tspan
         sodipodi:role="line"
         id="tspan3043"
         x="165.11678"
         y="274.84122">Extensive Depravity: Every part of Man is affected by</tspan><tspan
         sodipodi:role="line"
         id="tspan3045"
         x="165.11678"
         y="299.84122"> sin; our minds,&quot;heart&quot;, wills, body, conscience,</tspan><tspan
         sodipodi:role="line"
         x="165.11678"
         y="324.84122"
         id="tspan3047"> judjment, discernment - everything. </tspan></text>
  </g>
  <g
     inkscape:groupmode="layer"
     id="layer6"
     inkscape:label="title"
     style="display:inline"
     sodipodi:insensitive="true">
    <path
       inkscape:connector-curvature="0"
       id="path3023"
       d="m 88.890702,387.6497 c -1.517447,0.365 -0.856034,61.87978 0,62.49604 1.153397,1.24461 50.768678,1.38098 50.777598,0 0.65719,-0.3745 1.46695,-14.73139 0,-15.62378 -1.055,-1.38067 -32.54589,1.98107 -33.20064,0 -1.70134,-0.19855 1.36128,-46.66077 0,-46.87226 -1.3708,-1.24277 -17.069256,-1.40215 -17.576958,0 z"
       style="fill:#ff6600;stroke:#000000;stroke-width:6;stroke-linecap:butt;stroke-linejoin:miter;stroke-opacity:1"
       sodipodi:nodetypes="ccccccc" />
    <path
       sodipodi:nodetypes="czcsssc"
       inkscape:connector-curvature="0"
       id="path3027"
       d="m 136.62708,651.3351 c 3.5913,-13.45915 -50.562802,-20.08183 -48.950699,17.54528 1.612097,37.62711 52.974079,28.9406 48.950699,15.53119 -3.1187,-7.38776 -14.16448,5.5863 -22.57066,0.35587 -5.28475,-3.28825 -8.63231,-7.93108 -8.53877,-18.19118 0.0815,-8.94582 5.54482,-13.38492 12.58395,-15.14355 8.18255,-2.0443 15.49868,9.05327 18.52548,-0.0976 z"
       style="fill:#d40000;stroke:#000000;stroke-width:6;stroke-linecap:butt;stroke-linejoin:miter;stroke-opacity:1" />
    <path
       inkscape:connector-curvature="0"
       id="path3029"
       d="m 80.414657,775.49572 c -1.810358,0.17313 -2.739314,-13.5595 -1.503164,-13.52887 -0.243503,-1.71336 73.993427,-1.46411 73.655367,0 1.00708,0.0925 -0.0562,13.54354 -1.50361,13.52887 0.0923,2.17841 -25.82039,-1.25495 -25.5536,0 -1.65298,0.3468 1.46411,48.3817 0,48.10102 0.17932,1.71992 -19.51141,1.35201 -19.54124,0 -0.94077,0.12403 1.68514,-47.7661 0,-48.10102 0.26674,-1.45974 -25.820487,1.45027 -25.553753,0 z"
       style="fill:#44aa00;stroke:#000000;stroke-width:6;stroke-linecap:butt;stroke-linejoin:miter;stroke-opacity:1"
       sodipodi:nodetypes="ccccccccc" />
    <path
       sodipodi:nodetypes="ccccccccc"
       style="fill:#44aa00;stroke:#000000;stroke-width:5;stroke-linecap:butt;stroke-linejoin:miter;stroke-miterlimit:4;stroke-opacity:1;stroke-dasharray:none"
       d="m 133.23279,56.858353 c -1.39348,0.133258 -2.10851,-10.437057 -1.15702,-10.413483 -0.18743,-1.318816 56.95444,-1.12696 56.69424,0 0.77517,0.07121 -0.0433,10.424774 -1.15737,10.413483 0.0711,1.676769 -19.87455,-0.965964 -19.66919,0 -1.27234,0.266936 1.12695,37.240503 0,37.024452 0.13802,1.32386 -15.01838,1.040676 -15.04135,0 -0.72413,0.09548 1.29709,-36.766658 0,-37.024452 0.20532,-1.123599 -19.87462,1.116308 -19.66931,0 z"
       id="path3123"
       inkscape:connector-curvature="0" />
    <path
       sodipodi:nodetypes="czcczcc"
       style="fill:#5fbcd3;stroke:#000000;stroke-width:5;stroke-linecap:butt;stroke-linejoin:round;stroke-miterlimit:4;stroke-opacity:1;stroke-dasharray:none"
       d="m 297.65479,52.368945 c -8.78099,-11.454157 -41.6905,-8.340086 -41.37417,19.135297 0.31632,27.47539 36.22169,26.017721 40.14977,16.790264 0.11218,-8.69961 -26.323,4.152962 -22.43736,-13.112739 -0.67685,-2.937668 15.76788,2.489197 15.68672,-5.090808 -0.0812,-7.580004 -16.56786,-3.06081 -16.45445,-6.127881 -2.8579,-13.660928 24.30789,-2.187795 24.42949,-11.594133 z"
       id="path3125"
       inkscape:connector-curvature="0" />
    <path
       sodipodi:nodetypes="ccccccc"
       style="fill:#ff6600;stroke:#000000;stroke-width:5;stroke-linecap:butt;stroke-linejoin:miter;stroke-miterlimit:4;stroke-opacity:1;stroke-dasharray:none"
       d="m 296.45547,150.71718 c -1.32231,0.28094 -0.74596,47.62942 0,48.10376 1.00506,0.95799 35.90538,1.06296 35.91314,0 0.57269,-0.28825 1.27831,-11.33888 0,-12.02576 -0.91933,-1.06271 -20.02601,1.52485 -20.59656,0 -1.48256,-0.15283 1.18623,-35.91522 0,-36.078 -1.19452,-0.95658 -14.87416,-1.07925 -15.31658,0 z"
       id="path3127"
       inkscape:connector-curvature="0" />
    <path
       style="fill:#d40000;stroke:#000000;stroke-width:5;stroke-linecap:butt;stroke-linejoin:miter;stroke-miterlimit:4;stroke-opacity:1;stroke-dasharray:none"
       d="m 235.18972,159.37136 c 3.08853,-11.57489 -43.48413,-17.27041 -42.09772,15.089 1.38641,32.3594 45.55784,24.88898 42.09772,13.35685 -2.68209,-6.35349 -12.18148,4.80424 -19.41082,0.30605 -4.54489,-2.82789 -7.4238,-6.82075 -7.34337,-15.64445 0.0701,-7.69344 4.76857,-11.51108 10.82224,-13.0235 7.03701,-1.7581 13.3289,7.78583 15.93195,-0.084 z"
       id="path3129"
       inkscape:connector-curvature="0"
       sodipodi:nodetypes="czcsssc" />
    <path
       style="fill:#ff6600;fill-opacity:1;stroke:#000000;stroke-width:5;stroke-linecap:butt;stroke-linejoin:round;stroke-miterlimit:4;stroke-opacity:1;stroke-dasharray:none"
       d="m 201.71272,46.775595 c -1.037,0.01635 -0.77694,46.295859 0,46.3475 -0.079,1.406147 14.39195,1.124448 14.38357,0 0.91544,0.02915 -0.99559,-17.55265 0,-17.483019 0.0207,-1.1142 5.28846,-0.555782 8.69319,-0.513153 3.40472,0.04265 8.92243,-0.520533 8.88718,0.513153 1.2432,0.01724 -0.94933,17.214512 -1.7e-4,17.483019 -0.0251,1.203316 14.92355,0.988751 14.75721,-1.29e-4 1.19832,-0.168618 1.05498,-46.258445 0,-46.34751 0.0254,-0.998827 -14.78486,-0.728104 -14.75723,1.39e-4 -0.7952,0.03315 0.64666,15.948379 0,15.981553 0.0288,0.81771 -6.35982,0.197958 -9.09919,0.227477 -2.73939,0.0295 -8.37972,0.647086 -8.48099,-0.227339 -0.74988,0.0057 0.80635,-15.967882 -1.8e-4,-15.981691 -0.027,-1.029164 -14.39182,-1.081758 -14.38339,0 z"
       id="path3131"
       inkscape:connector-curvature="0"
       sodipodi:nodetypes="cccczcccccczccc" />
    <path
       style="fill:#ff2a2a;stroke:#000000;stroke-width:5;stroke-linecap:butt;stroke-linejoin:miter;stroke-miterlimit:4;stroke-opacity:1;stroke-dasharray:none"
       d="m 370.34015,46.724341 c 5.5e-4,-1.207654 -32.51353,-1.372778 -32.32532,0 l 0.32653,24.946279 c 0,0 27.08351,-4.552438 27.10076,6.455448 0.0173,11.007886 -27.42729,6.015047 -27.42729,6.015047 0,0 1.4333,8.993136 2.61228,8.640582 0,0 35.70767,9.375253 35.78593,-14.329091 0.0654,-19.785982 -26.39166,-16.950986 -26.39166,-16.950986 0,0 -0.83887,-6.531421 0,-6.464922 0.0416,-1.149972 22.04269,0.979606 22.16592,0 1.00055,0.115402 -1.12212,-8.312311 -1.84715,-8.312357 z"
       id="path3133"
       inkscape:connector-curvature="0"
       sodipodi:nodetypes="ccczccscccc" />
    <path
       style="fill:#d40000;fill-opacity:1;stroke:#000000;stroke-width:5;stroke-linecap:butt;stroke-linejoin:round;stroke-miterlimit:4;stroke-opacity:1;stroke-dasharray:none"
       d="m 490.75756,86.435379 c -0.44494,0.0012 -0.47016,6.951556 0,6.988006 0.027,0.644329 18.16131,0.589553 18.16866,-6.4e-5 0.45059,0.0073 0.46559,-6.951524 0,-6.987942 -0.022,-0.478622 -3.44276,0.197058 -3.45306,-0.52598 -0.33067,-0.0073 -0.16339,-7.971035 -0.13343,-16.173792 0.0288,-7.870859 0.014,-15.048466 0.23862,-15.023494 0.0448,-0.582015 3.36772,-0.07471 3.34787,-0.595482 0.42346,0.05231 0.46747,-7.284503 -3.5e-4,-7.337333 -0.0291,-0.596878 -18.14553,-0.418276 -18.16831,0.174702 -0.41515,0.0083 -0.49852,7.405652 0,7.337328 -0.005,0.390111 3.60455,-0.09942 3.59338,0.52598 0.36902,-0.0012 -0.0456,7.164929 -0.0795,15.023742 -0.0355,8.213943 0.29625,16.084013 0.0795,16.068349 9.2e-4,0.629048 -3.56429,0.0017 -3.59338,0.52598 z"
       id="path3145"
       inkscape:connector-curvature="0"
       sodipodi:nodetypes="cccccsccccccscc" />
    <path
       style="fill:#00aa44;fill-opacity:1;stroke:#000000;stroke-width:5;stroke-linecap:butt;stroke-linejoin:round;stroke-miterlimit:4;stroke-opacity:1;stroke-dasharray:none"
       d="m 515.78783,94.650391 c -0.11813,1.052933 13.00864,0.871352 12.97335,0.0639 l -0.30791,-24.248538 12.71803,24.402488 c 0.0736,0.879539 11.55005,0.618348 11.51299,0 l 0,-48.116932 c 0.0269,-0.675939 -11.53991,-0.705395 -11.51299,-0.154039 l 0,22.766275 -12.41012,-22.61204 c 0.0372,-0.790811 -12.91306,-0.742401 -12.97336,-2.81e-4 z"
       id="path3147"
       inkscape:connector-curvature="0"
       sodipodi:nodetypes="ccccccccccc" />
    <path
       inkscape:connector-curvature="0"
       id="path3149"
       d="m 561.17307,57.088886 c -1.34771,0.12888 -2.03926,-10.094225 -1.11901,-10.071424 -0.18128,-1.275497 55.08364,-1.089943 54.83198,0 0.74971,0.06887 -0.0418,10.082343 -1.11936,10.071424 0.0688,1.621692 -19.22171,-0.934235 -19.02311,0 -1.23054,0.258168 1.08994,36.017258 0,35.808312 0.1335,1.28037 -14.52506,1.006491 -14.54727,0 -0.70035,0.09233 1.25448,-35.558986 0,-35.808312 0.19857,-1.086694 -19.2218,1.07964 -19.02323,0 z"
       style="fill:#44aa00;stroke:#000000;stroke-width:5;stroke-linecap:butt;stroke-linejoin:miter;stroke-miterlimit:4;stroke-opacity:1;stroke-dasharray:none"
       sodipodi:nodetypes="ccccccccc" />
    <path
       style="fill:#5599ff;fill-opacity:1;stroke:#000000;stroke-width:5;stroke-linecap:butt;stroke-linejoin:miter;stroke-miterlimit:4;stroke-opacity:1;stroke-dasharray:none"
       d="m 646.6499,57.651723 c 1.85418,0.305732 2.54285,-7.15923 0,-9.317597 -8.03333,-8.746908 -27.23939,-1.285369 -27.09908,12.749659 0.14029,14.035023 16.99973,10.662219 16.63924,19.143322 -0.36051,8.481111 -15.58782,0.415401 -15.91796,2.578334 -1.2086,0.625616 -2.04584,10.78647 -0.21961,10.528735 0.50852,2.597299 32.34798,7.630954 31.96187,-10.47166 -0.38611,-18.102594 -17.93224,-14.667921 -17.52418,-21.929459 0.40808,-7.261528 11.84282,-0.951648 12.15972,-3.281334 z"
       id="path3151"
       inkscape:connector-curvature="0"
       sodipodi:nodetypes="cczzcczzc" />
    <path
       style="fill:#00d400;stroke:#000000;stroke-width:3;stroke-linecap:butt;stroke-linejoin:round;stroke-miterlimit:4;stroke-opacity:1;stroke-dasharray:none"
       d="m 387.82823,100.31997 c -0.59051,0.24522 -0.30031,41.76274 0,42.2833 0.50179,0.77332 7.75048,0.64559 8.16845,-1.6e-4 0.35843,-0.46882 0,-23.06344 0,-23.06344 l 4.80501,0 0,-6.24639 -4.80501,0 0,-5.2854 11.53182,0 6e-5,-7.68791 c 0,0 -19.35794,-0.562549 -19.70033,0 z"
       id="path3153"
       inkscape:connector-curvature="0"
       sodipodi:nodetypes="ccccccccccc" />
    <path
       inkscape:connector-curvature="0"
       id="path3157"
       d="m 369.1813,151.57091 c 0.0578,-1.41794 14.12364,-1.2507 13.85557,-0.16065 1.51842,0.30192 -14.89172,46.05932 -16.41867,46.14657 0.1535,1.16548 -13.86066,1.60329 -13.86187,0.0177 -1.55256,0.0248 -20.54968,-45.87398 -19.07008,-46.1561 -0.0285,-1.0748 14.74143,-1.68981 14.56386,-0.44047 1.51353,-0.0183 8.77979,28.60333 11.11088,28.52282 2.33109,-0.0805 8.39749,-28.25026 9.82031,-27.92986 z"
       style="fill:#44aa00;fill-opacity:1;stroke:#000000;stroke-width:5;stroke-linecap:butt;stroke-linejoin:round;stroke-miterlimit:4;stroke-opacity:1;stroke-dasharray:none"
       sodipodi:nodetypes="cccccczc" />
    <path
       style="fill:#800080;fill-opacity:1;stroke:#000000;stroke-width:5;stroke-linecap:butt;stroke-linejoin:round;stroke-miterlimit:4;stroke-opacity:1;stroke-dasharray:none"
       d="m 554.37474,197.25448 c -0.27808,1.42129 -18.66639,1.71351 -18.57013,0.1673 -1.28035,0.1401 10.69517,-46.80121 12.21276,-46.84378 -0.0922,-1.43918 14.45267,-1.45939 14.555,0 1.84531,0 7.63269,17.33228 8.69956,17.23194 0.99486,0.18796 6.68539,-17.05455 8.03032,-17.23194 0.0859,-1.37636 13.79418,-1.34708 13.88598,0 1.28336,0.20079 12.63744,45.8912 11.54337,46.17458 0.0345,1.15191 -16.01007,2.11456 -16.06067,0.6692 -1.40625,0.14517 -4.68428,-22.30006 -6.02269,-22.418 -1.28917,0.0444 -5.28239,16.53833 -6.52448,16.22782 -0.18455,1.54452 -10.26111,1.43431 -10.3727,0 -1.02727,0.29789 -5.04744,-16.07304 -6.5246,-16.22782 -1.49998,-0.10611 -3.6302,22.74457 -4.85172,22.2507 z"
       id="path3159"
       inkscape:connector-curvature="0"
       sodipodi:nodetypes="cccccccccccccc" />
    <path
       style="fill:#800080;fill-opacity:1;stroke:#000000;stroke-width:5;stroke-linejoin:round;stroke-miterlimit:4;stroke-opacity:1;stroke-dasharray:none"
       d="m 443.66037,71.424407 c -0.8739,-12.905349 8.26496,-24.877002 20.01181,-24.956567 11.74685,-0.07957 21.41677,9.906693 22.17493,22.335559 0.75817,12.428864 -5.62128,23.882901 -19.29736,24.713265 -13.67607,0.830383 -22.01547,-9.186904 -22.88938,-22.092257 z m 32.51476,-4.802622 c -0.86732,-6.287895 -5.80448,-10.739958 -11.18781,-10.427652 -5.38333,0.312301 -9.84679,5.816098 -9.34467,12.846524 0.5021,7.030431 5.29348,11.750853 11.76434,11.538856 6.47085,-0.211992 9.63545,-7.669834 8.76814,-13.957728 z"
       id="path3929"
       inkscape:connector-curvature="0"
       sodipodi:nodetypes="zzzzzzzzzz" />
    <path
       style="fill:#80b3ff;fill-opacity:1;stroke:#000000;stroke-width:5;stroke-linejoin:round;stroke-miterlimit:4;stroke-opacity:1;stroke-dasharray:none"
       d="m 405.06379,45.804692 c -0.0698,-1.188448 13.99082,-0.92831 13.92108,0.06929 l 0,3.71543 c 0,0 19.39054,-9.246519 20.47206,10.434822 1.08152,19.681339 -20.47206,12.900588 -20.47206,12.900588 0.21656,7.008346 1.44238,21.111165 0.64967,21.025055 0.14128,1.347769 -14.58668,1.679898 -14.57075,0.324813 z m 14.24592,11.599642 0,6.896217 c 0,0 9.2588,3.371124 9.24909,-3.643103 -0.01,-7.014226 -9.24909,-3.253114 -9.24909,-3.253114 z"
       id="path3935"
       inkscape:connector-curvature="0"
       sodipodi:nodetypes="ccczcccccczc" />
    <path
       style="fill:#44aa00;fill-opacity:1;stroke:#000000;stroke-width:5;stroke-linejoin:round;stroke-miterlimit:4;stroke-opacity:1;stroke-dasharray:none"
       d="m 259.13819,151.23056 c 0.25794,-0.98996 10.90834,-1.09121 10.95467,0.048 1.0016,0.0681 19.98197,45.73633 18.96238,45.73639 0.0124,0.78248 -13.48105,1.01322 -13.53147,0 -0.91057,0.22926 -5.18682,-13.77473 -6.35605,-13.45145 -0.2502,-1.07214 -8.98081,-0.91465 -8.91692,0.18845 -0.99528,0.11643 -4.72845,13.39807 -5.69256,13.26324 0.0443,0.90137 -13.23785,1.30612 -13.29082,0 -1.25636,0.0664 16.53306,-46.02192 17.87077,-45.78468 z m 5.77851,12.56416 c -1.33988,-0.14764 -3.90974,7.66892 -3.46567,7.89132 0.19976,0.82154 6.44062,0.86093 6.40485,0.0413 1.27779,-0.10913 -1.73012,-7.86768 -2.93918,-7.93262 z"
       id="path3943"
       inkscape:connector-curvature="0"
       sodipodi:nodetypes="ccccccccccccc" />
    <path
       sodipodi:nodetypes="cccccsccccccscc"
       inkscape:connector-curvature="0"
       id="path3947"
       d="m 392.98077,190.30815 c -0.45484,0.002 -0.48062,7.1062 0,7.14347 0.0276,0.65866 18.56537,0.60267 18.57284,-7e-5 0.46063,0.007 0.47598,-7.10618 0,-7.1434 -0.0223,-0.48927 -3.51933,0.20144 -3.52986,-0.53768 -0.33802,-0.007 -0.16701,-8.14837 -0.13638,-16.53362 0.0293,-8.04597 0.0143,-15.38326 0.24393,-15.35773 0.0458,-0.59496 3.44261,-0.0764 3.42231,-0.60873 0.43293,0.0534 0.47792,-7.44657 -3.5e-4,-7.50057 -0.0295,-0.61016 -18.5492,-0.42759 -18.57249,0.17859 -0.42437,0.008 -0.50961,7.57041 0,7.50056 -0.005,0.3988 3.68475,-0.10162 3.67334,0.53768 0.37723,-9.1e-4 -0.0466,7.32433 -0.0813,15.35799 -0.0363,8.39668 0.30283,16.44184 0.0813,16.42583 0.002,0.64304 -3.64361,0.002 -3.67334,0.53768 z"
       style="fill:#d40000;fill-opacity:1;stroke:#000000;stroke-width:5;stroke-linecap:butt;stroke-linejoin:round;stroke-miterlimit:4;stroke-opacity:1;stroke-dasharray:none" />
    <path
       sodipodi:nodetypes="ccccccccccc"
       inkscape:connector-curvature="0"
       id="path3949"
       d="m 422.74295,197.24656 c -0.11647,1.03805 12.82469,0.85902 12.78989,0.0631 l -0.30357,-23.90574 12.53825,24.05752 c 0.0726,0.86711 11.38679,0.60961 11.35025,0 l 0,-47.43673 c 0.0264,-0.66638 -11.37681,-0.69543 -11.35025,-0.15186 l 0,22.44444 -12.23468,-22.29239 c 0.0367,-0.77963 -12.73044,-0.7319 -12.78989,-2.7e-4 z"
       style="fill:#00aa44;fill-opacity:1;stroke:#000000;stroke-width:5;stroke-linecap:butt;stroke-linejoin:round;stroke-miterlimit:4;stroke-opacity:1;stroke-dasharray:none" />
    <path
       style="fill:#d40000;fill-opacity:1;stroke:#000000;stroke-width:5;stroke-linecap:butt;stroke-linejoin:round;stroke-miterlimit:4;stroke-opacity:1;stroke-dasharray:none"
       d="m 471.85978,190.30816 c -0.45484,9.2e-4 -0.48062,7.10621 0,7.14347 0.0277,0.65867 18.56539,0.60268 18.57287,-6e-5 0.46063,0.007 0.47598,-7.10618 0,-7.14341 -0.0223,-0.48927 -3.51933,0.20144 -3.52987,-0.53768 -0.33801,-0.007 -0.16698,-8.14838 -0.1364,-16.53363 0.0295,-8.04596 0.0144,-15.38325 0.24396,-15.35773 0.0457,-0.59496 3.44259,-0.0764 3.42231,-0.60873 0.43291,0.0534 0.47791,-7.44657 -3.6e-4,-7.50057 -0.0295,-0.61016 -18.5492,-0.42759 -18.57251,0.17859 -0.42438,0.008 -0.50958,7.57041 0,7.50056 -0.006,0.3988 3.68475,-0.10162 3.67337,0.53768 0.37722,-9.1e-4 -0.0464,7.32434 -0.0812,15.358 -0.0361,8.39667 0.30279,16.44184 0.0812,16.42583 0,0.64304 -3.64361,0.002 -3.67337,0.53768 z"
       id="path3951"
       inkscape:connector-curvature="0"
       sodipodi:nodetypes="cccccsccccccscc" />
    <path
       sodipodi:nodetypes="cczzcczzc"
       inkscape:connector-curvature="0"
       id="path3953"
       d="m 525.49109,161.51167 c 1.71041,0.28202 2.34564,-6.60399 0,-8.59497 -7.41033,-8.06854 -25.12685,-1.18568 -24.99738,11.76085 0.12942,12.94653 15.68127,9.8353 15.34877,17.65865 -0.33256,7.82336 -14.37889,0.38318 -14.68341,2.37837 -1.1149,0.5771 -1.8872,9.94992 -0.20263,9.71218 0.46912,2.39587 29.83925,7.03913 29.48306,-9.65953 -0.35613,-16.69864 -16.54146,-13.53034 -16.16507,-20.22871 0.37645,-6.69836 10.92434,-0.87783 11.21666,-3.02684 z"
       style="fill:#5599ff;fill-opacity:1;stroke:#000000;stroke-width:5;stroke-linecap:butt;stroke-linejoin:miter;stroke-miterlimit:4;stroke-opacity:1;stroke-dasharray:none" />
    <path
       sodipodi:nodetypes="zzzzzzzzzz"
       inkscape:connector-curvature="0"
       id="path3955"
       d="m 355.40105,125.97569 c -0.54204,-8.00463 5.12641,-15.43013 12.41247,-15.47948 7.28606,-0.0493 13.28389,6.14469 13.75414,13.85378 0.47026,7.70908 -3.48663,14.81353 -11.96931,15.32858 -8.48268,0.51504 -13.65524,-5.69825 -14.1973,-13.70288 z m 17.31036,-2.62172 c -0.35938,-2.47154 -1.99313,-4.16154 -4.08217,-4.1464 -2.08904,0.0151 -3.60751,3.07175 -3.47466,5.111 0.13285,2.03925 2.21188,4.78855 4.7969,4.65706 2.58502,-0.13149 3.11931,-3.15012 2.75993,-5.62166 z"
       style="fill:#ff00ff;fill-opacity:1;stroke:#000000;stroke-width:3;stroke-linejoin:round;stroke-miterlimit:4;stroke-opacity:1;stroke-dasharray:none" />
    <path
       inkscape:connector-curvature="0"
       id="path3974"
       d="m 135.18696,267.45406 c -11.74341,-15.31842 -55.755494,-11.15377 -55.332444,25.59092 0.423036,36.74467 48.441684,34.79524 53.694974,22.45473 0.15002,-11.63457 -35.203509,5.55404 -30.00699,-17.53655 -0.90519,-3.92873 21.08745,3.32898 20.9789,-6.80828 -0.10859,-10.13723 -22.1573,-4.09342 -22.00564,-8.19522 -3.822052,-18.26968 32.50858,-2.92588 32.6712,-15.5056 z"
       style="fill:#5fbcd3;stroke:#000000;stroke-width:6.68683529;stroke-linecap:butt;stroke-linejoin:round;stroke-miterlimit:4;stroke-opacity:1;stroke-dasharray:none"
       sodipodi:nodetypes="czcczcc" />
    <path
       sodipodi:nodetypes="czcczcc"
       style="fill:#5fbcd3;stroke:#000000;stroke-width:6.68683529;stroke-linecap:butt;stroke-linejoin:round;stroke-miterlimit:4;stroke-opacity:1;stroke-dasharray:none"
       d="m 133.16665,524.03281 c -11.74341,-15.31842 -55.755488,-11.15377 -55.332439,25.59092 0.423036,36.74467 48.441679,34.79524 53.694969,22.45473 0.15002,-11.63457 -35.203504,5.55404 -30.00699,-17.53655 -0.90519,-3.92873 21.08745,3.32898 20.9789,-6.80828 -0.10859,-10.13723 -22.1573,-4.09342 -22.00564,-8.19522 -3.822046,-18.26968 32.50858,-2.92588 32.6712,-15.5056 z"
       id="path3976"
       inkscape:connector-curvature="0" />
  </g>
</svg>
